<?xml version="1.0" encoding="UTF-8"?>
<svg id="Capa_1" data-name="Capa 1" xmlns="http://www.w3.org/2000/svg" viewBox="0 0 66.84 71.54">
  <defs>
    <style>
      .cls-1 {
        fill: #252729;
      }

      .cls-2 {
        fill: #b2b2b8;
      }

      .cls-3 {
        fill: #fcde80;
      }

      .cls-4 {
        fill: #fff;
      }

      .cls-5 {
        fill: #232428;
      }

      .cls-6 {
        fill: #1d1e22;
      }

      .cls-7 {
        fill: #e8f0f2;
      }

      .cls-8 {
        fill: #242426;
      }

      .cls-9 {
        fill: #212327;
      }

      .cls-10 {
        fill: #aab0b9;
      }

      .cls-11 {
        fill: #242526;
      }

      .cls-12 {
        fill: #8ecfd9;
      }

      .cls-13 {
        fill: #2a2a2e;
      }

      .cls-14 {
        fill: #26262a;
      }
    </style>
  </defs>
  <rect class="cls-2" width="66.84" height="71.54" rx="12.28" ry="12.28"/>
  <g>
    <path class="cls-4" d="M50.42,34.42c-.38,.05-.49,.31-.46,.63,.04,.34-.08,.43-.41,.4-.32-.03-.6,.08-.61,.46,0,.38,.26,.51,.59,.47,.35-.04,.46,.09,.42,.43-.03,.33,.11,.61,.47,.6,.36,0,.5-.28,.45-.61-.05-.37,.11-.45,.43-.41,.34,.03,.61-.12,.6-.47,0-.36-.29-.5-.62-.46-.36,.05-.45-.1-.42-.43,.04-.34-.11-.57-.47-.6Zm-34.1,3c.33-.04,.5-.25,.47-.57-.04-.38,.07-.53,.47-.48,.32,.04,.55-.12,.55-.47,0-.32-.23-.48-.52-.46-.4,.04-.54-.09-.5-.49,.03-.31-.14-.55-.49-.53-.32,.02-.46,.25-.43,.54,.04,.37-.06,.53-.46,.48-.32-.04-.57,.12-.57,.46,0,.33,.23,.51,.56,.47,.42-.05,.52,.12,.48,.5-.03,.31,.15,.49,.45,.54Zm-1.78,17.37c.32,.04,.58-.09,.59-.45,0-.37-.29-.46-.62-.46-.33,0-.6,.07-.64,.44-.04,.29,.22,.47,.67,.47Zm37.74,0c.35,.04,.61-.09,.61-.45,0-.37-.29-.46-.62-.46-.33,0-.63,.07-.63,.44,0,.39,.28,.51,.64,.47Z"/>
    <path class="cls-5" d="M34.79,9.72c.64,.11,1.28,.19,1.91,.35,6.64,1.62,10.87,5.74,12.49,12.36,1.05,4.26,.26,8.33-2.01,12.1-.18,.3-.39,.47-.75,.36-.33-.3-.2-.58,0-.9,2.06-3.41,2.75-7.08,1.97-10.98-1.83-9.17-11.12-14.52-19.97-11.54-6.01,2.02-10.24,7.79-10.35,14.12-.05,3.02,.69,5.83,2.27,8.41,.19,.31,.32,.6,0,.9-.33,.09-.54-.02-.72-.32-1.95-3.18-2.8-6.63-2.34-10.32,.82-6.5,4.36-10.98,10.4-13.48,1.23-.51,2.54-.78,3.86-.95,.09-.01,.21,.04,.26-.09,1,0,2,0,2.99,0Z"/>
    <path class="cls-10" d="M20.33,34.88c.32-.3,.2-.58,0-.9-1.58-2.58-2.32-5.39-2.27-8.41,.11-6.33,4.35-12.1,10.35-14.12,8.85-2.97,18.14,2.37,19.97,11.54,.78,3.9,.08,7.57-1.97,10.98-.19,.31-.32,.6,0,.9-.22,.15-.25,.49-.56,.55-.47-.41-.89-.88-1.43-1.22-1.06-.67-2.22-.97-3.47-.93-.36,.01-.73,0-1.19,0,4.44-4.13,4.08-10.42,.59-14.04-3.46-3.59-9-4.01-12.94-.94-1.99,1.55-3.23,3.6-3.61,6.09-.53,3.46,.58,6.39,3.17,8.9-.59,0-1.05,0-1.51,0-1.27,0-2.41,.4-3.45,1.12-.42,.3-.75,.69-1.14,1.02-.3-.07-.33-.41-.55-.55Zm1.11-9.04c.04-.62,.08-1.37,.21-2.1,1.19-6.49,7.62-10.83,14.08-9.5,8.14,1.67,12.15,10.9,7.82,17.99-.08,.12-.17,.25-.21,.38-.07,.21-.02,.41,.19,.53,.21,.12,.4,.09,.55-.09,.11-.13,.21-.29,.29-.44,1.57-2.66,2.16-5.51,1.7-8.57-1.1-7.29-8.11-12.18-15.29-10.69-8.46,1.76-12.83,11.28-8.65,18.84,.15,.27,.31,.53,.48,.79,.15,.22,.36,.31,.61,.16,.26-.16,.28-.39,.15-.65-.05-.09-.11-.18-.16-.26-1.17-1.92-1.75-4.01-1.77-6.39Z"/>
    <path class="cls-1" d="M20.88,35.43c.4-.32,.72-.72,1.14-1.02,1.04-.73,2.18-1.13,3.45-1.12,.46,0,.93,0,1.51,0-2.59-2.5-3.7-5.44-3.17-8.9,.38-2.49,1.62-4.54,3.61-6.09,3.95-3.07,9.49-2.65,12.94,.94,3.5,3.63,3.85,9.91-.59,14.04,.46,0,.82,0,1.19,0,1.25-.04,2.4,.26,3.47,.93,.54,.34,.96,.8,1.43,1.22,.52,.8,1.01,1.61,1.19,2.57,.08,.43,.14,.87,.14,1.31,0,4.37,0,8.75,0,13.12,0,.35-.03,.65-.45,.73-.46-.06-.48-.39-.48-.75,0-3.02,0-6.04,0-9.06,0-.34-.09-.44-.43-.44-.98,.02-1.97,.03-2.95,0-.41-.01-.47,.12-.47,.49,.01,3.01,0,6.01,.01,9.02,0,.34-.03,.66-.45,.74-.46-.06-.48-.39-.48-.75,0-4.4,0-8.8,0-13.2,0-.15,0-.3,.04-.43,.09-.28,.3-.39,.58-.27,.27,.11,.29,.34,.29,.58,0,.88,0,1.76,0,2.64,0,.21,.02,.32,.28,.32,1.1-.01,2.2-.01,3.3,0,.22,0,.28-.08,.27-.28-.02-1.03,.04-2.05-.04-3.08-.18-2.14-1.99-4.06-4.11-4.39-1.05-.16-2.11-.04-3.16-.09-.3-.01-.56,.06-.83,.21-2.73,1.5-5.59,1.75-8.44,.49-1.21-.54-2.38-.78-3.67-.7-.19,.01-.38,0-.57,0-2.34,.02-4.37,1.67-4.85,3.95-.25,1.2-.09,2.43-.13,3.64-.01,.29,.19,.24,.36,.24,1.04,0,2.08,0,3.12,0,.28,0,.38-.06,.37-.36-.02-.85,0-1.7,0-2.55,0-.34,.06-.66,.46-.67,.4,0,.47,.32,.46,.66,0,.09,0,.18,0,.26,0,3.35,0,6.69,0,10.04,0,1.03,0,2.05,0,3.08,0,.34-.08,.61-.48,.66-.42-.08-.45-.39-.45-.74,0-3.04,0-6.07,0-9.11,0-.29-.06-.4-.38-.4-1.04,.02-2.08,.02-3.12,0-.27,0-.35,.07-.35,.34,.02,.7,0,1.41,0,2.11,0,2.35,0,4.69,0,7.04,0,.36-.02,.69-.48,.75-.33-.06-.45-.27-.45-.59,0-4.52,0-9.05,.01-13.57,0-1.16,.41-2.23,1.08-3.19,.08-.12,.15-.25,.23-.37Zm12.49-18.26c-4.86,0-8.79,3.95-8.79,8.82,0,4.8,3.94,8.74,8.77,8.76,4.83,.02,8.8-3.93,8.81-8.76,0-4.87-3.93-8.82-8.79-8.82Z"/>
    <path class="cls-3" d="M20.01,53.16c.46-.06,.48-.39,.48-.75,0-2.35,0-4.69,0-7.04,0-.7,.01-1.41,0-2.11,0-.27,.07-.35,.35-.34,1.04,.02,2.08,.02,3.12,0,.32,0,.38,.1,.38,.4-.01,3.04,0,6.07,0,9.11,0,.34,.02,.66,.45,.74,0,.24,0,.49,0,.73-1.59,.03-3.17,.04-4.76,0,0-.24,0-.48,0-.72Z"/>
    <path class="cls-3" d="M41.99,53.15c.42-.08,.45-.39,.45-.74,0-3.01,0-6.01-.01-9.02,0-.37,.06-.5,.47-.49,.98,.04,1.97,.03,2.95,0,.35,0,.44,.09,.43,.44-.01,3.02,0,6.04,0,9.06,0,.36,.02,.69,.48,.75,0,.24,0,.48,0,.72-1.59,.05-3.17,.03-4.76,0,0-.24,0-.49,0-.73Z"/>
    <path class="cls-6" d="M41.99,53.88c1.59,.03,3.17,.04,4.76,0,1.11,0,2.23,.01,3.34,.02,.15,0,.3,0,.44,.02,.23,.04,.35,.21,.35,.44,0,.23-.14,.39-.37,.43-.13,.03-.26,0-.4,0-11.16,0-22.33,0-33.49,0-.12,0-.24,0-.35,0-.26-.03-.4-.19-.41-.44,0-.25,.13-.42,.39-.45,.13-.02,.26-.02,.4-.02,1.11,0,2.23-.01,3.34-.02,1.59,.05,3.17,.03,4.76,0,.12,0,.23,.02,.35,.02,5.51,0,11.02,0,16.53,0,.12,0,.23-.02,.35-.02Z"/>
    <path class="cls-13" d="M50.42,34.42c.37,.03,.51,.26,.47,.6-.03,.33,.06,.48,.42,.43,.33-.04,.61,.1,.62,.46,0,.35-.26,.51-.6,.47-.32-.03-.48,.05-.43,.41,.05,.33-.09,.61-.45,.61-.36,0-.51-.27-.47-.6,.03-.34-.07-.47-.42-.43-.33,.04-.6-.09-.59-.47,0-.38,.29-.49,.61-.46,.32,.03,.44-.07,.41-.4-.03-.32,.08-.58,.46-.63Z"/>
    <path class="cls-13" d="M16.32,37.42c-.3-.06-.48-.23-.45-.54,.04-.38-.06-.56-.48-.5-.32,.04-.56-.14-.56-.47,0-.33,.26-.5,.57-.46,.4,.05,.5-.11,.46-.48-.03-.3,.11-.53,.43-.54,.35-.02,.52,.22,.49,.53-.04,.41,.1,.53,.5,.49,.3-.03,.52,.13,.52,.46,0,.35-.24,.51-.55,.47-.4-.05-.5,.1-.47,.48,.03,.32-.14,.53-.47,.57Z"/>
    <path class="cls-14" d="M14.53,54.8c-.45,0-.71-.18-.67-.47,.05-.37,.32-.45,.64-.44,.33,0,.62,.09,.62,.46,0,.36-.27,.49-.59,.45Z"/>
    <path class="cls-14" d="M52.27,54.8c-.36,.04-.65-.07-.64-.47,0-.37,.31-.44,.63-.44,.33,0,.62,.09,.62,.46,0,.36-.26,.49-.61,.45Z"/>
    <path class="cls-9" d="M21.43,25.84c.02,2.37,.6,4.46,1.77,6.39,.05,.09,.11,.17,.16,.26,.14,.26,.11,.49-.15,.65-.25,.15-.46,.06-.61-.16-.17-.25-.33-.52-.48-.79-4.19-7.55,.19-17.08,8.65-18.84,7.18-1.49,14.19,3.4,15.29,10.69,.46,3.06-.13,5.91-1.7,8.57-.09,.15-.18,.3-.29,.44-.15,.18-.35,.21-.55,.09-.21-.12-.26-.32-.19-.53,.04-.14,.14-.26,.21-.38,4.33-7.09,.32-16.31-7.82-17.99-6.46-1.33-12.89,3.01-14.08,9.5-.14,.74-.18,1.48-.21,2.1Z"/>
    <path class="cls-12" d="M41.99,53.88c-.12,0-.23,.02-.35,.02-5.51,0-11.02,0-16.53,0-.12,0-.23-.02-.35-.02,0-.24,0-.49,0-.73,.4-.05,.48-.32,.48-.66,0-1.03,0-2.05,0-3.08,0-3.35,0-6.69,0-10.04,0-.09,0-.18,0-.26,0-.34-.06-.66-.46-.66-.4,0-.46,.33-.46,.67,0,.85-.01,1.7,0,2.55,0,.3-.09,.37-.37,.36-1.04-.02-2.08,0-3.12,0-.17,0-.37,.06-.36-.24,.04-1.21-.12-2.44,.13-3.64,.48-2.28,2.51-3.93,4.85-3.95,.19,0,.38,.01,.57,0,1.28-.09,2.45,.16,3.67,.7,2.85,1.27,5.7,1.01,8.44-.49,.27-.15,.53-.22,.83-.21,1.05,.05,2.11-.08,3.16,.09,2.12,.33,3.93,2.26,4.11,4.39,.09,1.03,.02,2.05,.04,3.08,0,.2-.06,.28-.27,.28-1.1,0-2.2-.01-3.3,0-.26,0-.28-.11-.28-.32,0-.88,0-1.76,0-2.64,0-.24-.02-.48-.29-.58-.29-.11-.49,0-.58,.27-.04,.13-.04,.29-.04,.43,0,4.4,0,8.8,0,13.2,0,.36,.02,.69,.48,.75,0,.24,0,.49,0,.73Z"/>
    <path class="cls-3" d="M33.38,17.18c4.86,0,8.8,3.95,8.79,8.82,0,4.82-3.98,8.77-8.81,8.76-4.83-.02-8.76-3.95-8.77-8.76,0-4.87,3.93-8.82,8.79-8.82Zm-3.94,8.14c1.15,0,2.08-.9,2.09-2.04,.01-1.14-.95-2.11-2.09-2.1-1.14,0-2.05,.93-2.06,2.08,0,1.16,.9,2.06,2.05,2.07Zm9.94-2.06c0-1.15-.91-2.07-2.05-2.08-1.14-.01-2.1,.95-2.1,2.09,0,1.14,.93,2.05,2.08,2.05,1.16,0,2.06-.91,2.06-2.06Z"/>
    <path class="cls-11" d="M29.43,25.32c-1.16,0-2.05-.91-2.05-2.07,0-1.15,.91-2.07,2.06-2.08,1.14,0,2.1,.96,2.09,2.1-.01,1.14-.94,2.05-2.09,2.04Zm.01-.89c.64,0,1.18-.55,1.17-1.18,0-.62-.53-1.15-1.15-1.16-.63-.01-1.19,.52-1.19,1.16,0,.64,.53,1.18,1.17,1.18Z"/>
    <path class="cls-8" d="M39.37,23.26c0,1.15-.91,2.06-2.06,2.06-1.15,0-2.07-.91-2.08-2.05,0-1.15,.95-2.11,2.1-2.09,1.14,.01,2.05,.94,2.05,2.08Zm-.9,.05c.03-.64-.48-1.19-1.12-1.22-.64-.03-1.19,.49-1.22,1.13-.02,.61,.48,1.16,1.1,1.2,.63,.04,1.2-.47,1.24-1.11Z"/>
    <path class="cls-7" d="M29.44,24.42c-.64,0-1.17-.54-1.17-1.18,0-.64,.56-1.17,1.19-1.16,.62,.01,1.14,.54,1.15,1.16,0,.63-.54,1.18-1.17,1.18Z"/>
    <path class="cls-7" d="M38.48,23.31c-.03,.64-.6,1.15-1.24,1.11-.62-.04-1.13-.59-1.1-1.2,.02-.65,.58-1.16,1.22-1.13,.65,.03,1.16,.59,1.12,1.22Z"/>
  </g>
</svg>