<?xml version="1.0" encoding="UTF-8"?>
<svg id="Capa_1" data-name="Capa 1" xmlns="http://www.w3.org/2000/svg" viewBox="0 0 66.84 71.54">
  <defs>
    <style>
      .cls-1 {
        fill: #b2b2b8;
      }

      .cls-2 {
        fill: #fcde80;
      }

      .cls-3 {
        fill: #202529;
      }

      .cls-4 {
        fill: #8dcfd9;
      }

      .cls-5 {
        fill: #222225;
      }

      .cls-6 {
        fill: #202428;
      }

      .cls-7 {
        fill: #8cccd6;
      }

      .cls-8 {
        fill: #1d1e22;
      }

      .cls-9 {
        fill: #212226;
      }

      .cls-10 {
        fill: #fbdd7f;
      }

      .cls-11 {
        fill: #252529;
      }

      .cls-12 {
        fill: #232325;
      }

      .cls-13 {
        fill: #212224;
      }

      .cls-14 {
        fill: #aab1ba;
      }

      .cls-15 {
        fill: #262628;
      }
    </style>
  </defs>
  <rect class="cls-1" y="0" width="66.84" height="71.54" rx="12.28" ry="12.28"/>
  <g>
    <path class="cls-5" d="M44.75,32.81c-.05,.3-.21,.51-.52,.47-.32-.04-.4-.28-.4-.59,0-2.28,0-4.57,0-6.85,0-1.66,1.1-2.87,2.75-3.06,.08,0,.17-.02,.32-.05-1.04-1.3-1.39-2.72-1.02-4.29,.26-1.11,.88-2.01,1.8-2.69,1.86-1.38,4.41-1.2,6.11,.4,1.51,1.42,2.2,4.14,.38,6.53,.05,.13,.17,.08,.26,.1,1.37,.16,2.3,.97,2.66,2.33,0,.03,.05,.06,.08,.08v7.87c-.5,.38-.74,.31-.92-.24,0-2.27,.01-4.53,.02-6.8,0-2.1-1.81-2.8-3.6-2.14-1.33,.49-2.62,.71-3.93,.14-.62-.28-1.23-.34-1.87-.33-1.18,.02-2.12,.84-2.13,2.02-.03,2.37,0,4.74,0,7.11Zm5.74-9.37c2.1,0,3.85-1.7,3.86-3.78,.01-2.16-1.68-3.91-3.81-3.93-2.13-.02-3.87,1.72-3.88,3.86,0,2.12,1.7,3.84,3.83,3.85Z"/>
    <path class="cls-8" d="M17.24,54.35c-.15-.19-.36-.36-.2-.65,.15-.28,.4-.26,.65-.26,1.85,0,3.7,0,5.55-.01,1.36,.05,2.72,.04,4.07,0,.18,0,.35,.02,.53,.02,4.17,0,8.34,0,12.51,0,.48,0,.97-.01,1.45-.02,1.36,.04,2.72,.05,4.07,0,1.73,0,3.47,0,5.2,.01,.13,0,.26,0,.4,0,.26,0,.5,.01,.62,.3,.12,.28-.09,.43-.22,.61H17.24Z"/>
    <path class="cls-11" d="M15.21,54.35c-.18-.23-.38-.49-.1-.76,.26-.25,.61-.21,.91-.08,.31,.13,.29,.45-.01,.84h-.8Z"/>
    <path class="cls-11" d="M53.12,54.35c-.21-.24-.39-.49-.08-.79,.18-.17,.76-.17,.95,0,.31,.29,.13,.54-.07,.79h-.8Z"/>
    <path class="cls-9" d="M37.91,22.28c1.93,.94,3.39,2.34,4.25,4.33,1.32,3.07,.67,6.63-1.66,9.02-.09,.09-.21,.15-.29,.27,.73,.1,1.44,.06,2.12,.22,2.34,.55,3.98,2.58,3.98,4.96,0,3.72,0,7.45,0,11.17,0,.33-.03,.63-.44,.69-.41-.04-.47-.31-.47-.66,0-2.51,0-5.03,.01-7.54,0-.35-.07-.49-.45-.47-.73,.03-1.47,.03-2.2,0-.41-.02-.51,.11-.51,.51,.02,2.5,0,5,.01,7.5,0,.34-.05,.62-.46,.66-.34-.06-.44-.28-.44-.61,0-3.8,0-7.6,0-11.4,0-.32,.1-.57,.46-.57,.37,0,.45,.26,.45,.58,0,.69,0,1.38,0,2.08,0,.25,.04,.37,.33,.36,.82-.02,1.65-.01,2.47,0,.24,0,.34-.05,.34-.31-.02-.63,.01-1.27-.01-1.9-.09-2.25-1.46-3.9-3.59-4.2-.84-.12-1.7-.04-2.56-.06-.23,0-.42,.06-.62,.17-2.34,1.28-4.78,1.5-7.21,.42-1.02-.45-2.01-.64-3.09-.58-.18,0-.35,0-.53,0-1.86,.05-3.46,1.31-3.93,3.11-.26,1.03-.12,2.08-.16,3.12,0,.27,.17,.22,.33,.22,.82,0,1.65-.01,2.47,0,.29,0,.34-.1,.34-.36-.02-.69,0-1.38,0-2.08,0-.31,.07-.58,.44-.58,.36,0,.46,.25,.46,.57,0,3.8,0,7.6,0,11.4,0,.32-.1,.54-.44,.61-.41-.04-.46-.32-.46-.66,0-2.53,0-5.06,.01-7.59,0-.33-.08-.43-.42-.42-.75,.03-1.5,.04-2.25,0-.43-.02-.5,.13-.5,.52,.02,2.5,0,5,.01,7.5,0,.35-.06,.62-.47,.66-.32-.05-.44-.25-.44-.56,0-3.87-.03-7.74,.02-11.61,.04-2.65,2.38-4.75,5.19-4.79,.28,0,.56,0,.83,0,.06-.13-.05-.17-.1-.22-4.07-4.16-2.94-10.82,2.28-13.38,.06-.03,.12-.07,.18-.11,.83-.29,1.67-.56,2.55-.64,1.44-.13,2.81,.12,4.14,.64Zm4,7.6c.02-4.03-3.25-7.34-7.28-7.36-4.08-.02-7.4,3.23-7.41,7.27-.02,4.12,3.25,7.45,7.33,7.47,4.05,.02,7.35-3.29,7.37-7.39Z"/>
    <path class="cls-10" d="M24.36,32.81c-.52,0-1.03,0-1.55,0,0-2.27-.01-4.53-.02-6.8,0-.62-.13-.85-.47-.82-.53,.05-.43,.47-.43,.81-.01,2.27-.01,4.53-.02,6.8-2.18,0-4.36,0-6.54,0,0-2.27,0-4.53-.01-6.8,0-.34,.09-.76-.44-.81-.34-.03-.47,.21-.47,.82,0,2.27-.01,4.53-.02,6.8-.51,0-1.03,0-1.54,0,0-2.27-.01-4.53-.02-6.8-.01-2.1,1.81-2.8,3.6-2.14,1.33,.49,2.62,.71,3.93,.13,.62-.28,1.23-.34,1.87-.33,1.18,.02,2.11,.84,2.13,2.02,.04,2.37,0,4.74,0,7.11Z"/>
    <path class="cls-10" d="M44.75,32.81c0-2.37-.04-4.74,0-7.11,.02-1.18,.96-2,2.13-2.02,.65-.01,1.25,.05,1.87,.33,1.31,.58,2.59,.35,3.93-.14,1.79-.66,3.61,.05,3.6,2.14-.01,2.27-.02,4.53-.02,6.8-.51,0-1.03,0-1.54,0,0-2.28-.01-4.56-.02-6.84,0-.13,.02-.27-.01-.4-.05-.24-.2-.39-.46-.39-.26,0-.4,.16-.43,.41-.01,.15-.01,.29-.01,.44,0,2.25,0,4.5-.01,6.76-2.18,0-4.36,0-6.54,0,0-2.25-.01-4.5-.02-6.76,0-.15,0-.29,0-.44-.02-.26-.16-.4-.43-.41-.26,0-.41,.15-.46,.39-.03,.13-.01,.26-.01,.4,0,2.28-.01,4.56-.02,6.84-.52,0-1.03,0-1.55,0Z"/>
    <path class="cls-5" d="M24.36,32.81c0-2.37,.04-4.74,0-7.11-.02-1.18-.95-2-2.13-2.02-.65-.01-1.25,.05-1.87,.33-1.31,.58-2.59,.35-3.93-.13-1.79-.66-3.61,.04-3.6,2.14,.01,2.27,.02,4.53,.02,6.8-.05,.3-.2,.51-.53,.47-.31-.04-.4-.28-.4-.58,0-2.28,0-4.57,0-6.85,0-1.65,1.1-2.87,2.75-3.06,.08,0,.17-.02,.32-.05-1.05-1.31-1.39-2.75-1.01-4.33,.27-1.11,.9-2,1.83-2.67,1.87-1.36,4.43-1.17,6.1,.45,1.51,1.46,2.14,4.15,.34,6.5,.08,.15,.23,.09,.35,.1,1.49,.17,2.65,1.42,2.66,2.92,.01,2.33,0,4.65,0,6.98,0,.3-.08,.54-.4,.59-.32,.04-.48-.16-.52-.47Zm-5.74-9.37c2.13,0,3.84-1.72,3.83-3.85,0-2.12-1.72-3.85-3.83-3.86-2.13,0-3.86,1.74-3.85,3.88,0,2.11,1.73,3.83,3.86,3.82Z"/>
    <path class="cls-2" d="M37.91,22.28c-1.33-.52-2.71-.77-4.14-.64-.89,.08-1.72,.35-2.55,.64-.12-.14-.24-.27-.29-.45,.29-.26,.18-.54,.07-.84-.5-1.38-.33-2.68,.6-3.81,.92-1.11,2.12-1.6,3.57-1.37,2.45,.39,3.87,2.88,2.98,5.19-.12,.3-.22,.58,.07,.84-.05,.18-.18,.32-.3,.45Z"/>
    <path class="cls-7" d="M23.24,52.96c.41-.04,.47-.31,.47-.66,0-2.5,0-5-.01-7.5,0-.39,.07-.54,.5-.52,.75,.04,1.5,.03,2.25,0,.34-.01,.42,.1,.42,.42-.01,2.53,0,5.06-.01,7.59,0,.34,.05,.62,.46,.66,0,.16,0,.32,0,.48-1.36,.04-2.72,.05-4.07,0,0-.16,0-.31,0-.47Z"/>
    <path class="cls-7" d="M41.81,52.96c.41-.04,.46-.32,.46-.66,0-2.5,0-5-.01-7.5,0-.4,.09-.53,.51-.51,.73,.04,1.47,.03,2.2,0,.38-.02,.46,.12,.45,.47-.01,2.51,0,5.03-.01,7.54,0,.35,.06,.62,.47,.66,0,.16,0,.31,0,.47-1.36,.05-2.72,.04-4.07,0,0-.16,0-.32,0-.47Z"/>
    <path class="cls-15" d="M38.2,21.83c-.29-.26-.19-.54-.07-.84,.89-2.31-.54-4.8-2.98-5.19-1.45-.23-2.65,.26-3.57,1.37-.93,1.14-1.1,2.44-.6,3.81,.11,.31,.22,.58-.07,.84-.42,.16-.62-.07-.77-.42-1.31-3.13,1.06-6.62,4.48-6.57,3.36,.05,5.64,3.49,4.35,6.57-.15,.35-.34,.59-.77,.43Z"/>
    <path class="cls-12" d="M14.4,32.8c0-2.27,.01-4.53,.02-6.8,0-.61,.13-.85,.47-.82,.53,.05,.43,.47,.44,.81,0,2.27,0,4.53,.01,6.8-.02,.29-.17,.49-.46,.49-.29,0-.44-.2-.48-.48Z"/>
    <path class="cls-13" d="M46.3,32.81c0-2.28,.01-4.56,.02-6.84,0-.13-.02-.27,.01-.4,.05-.24,.2-.39,.46-.39,.26,0,.4,.16,.43,.41,.01,.15,0,.29,0,.44,0,2.25,.01,4.5,.02,6.76-.03,.28-.17,.49-.46,.49-.28,0-.44-.19-.48-.47Z"/>
    <path class="cls-12" d="M53.78,32.79c0-2.25,0-4.5,.01-6.76,0-.15,0-.29,.01-.44,.02-.26,.16-.4,.43-.41,.26,0,.41,.15,.46,.39,.03,.13,.01,.26,.01,.4,0,2.28,.01,4.56,.02,6.84-.04,.28-.2,.48-.48,.48-.29,0-.44-.2-.46-.49Z"/>
    <path class="cls-13" d="M21.88,32.79c0-2.27,0-4.53,.02-6.8,0-.34-.1-.76,.43-.81,.35-.03,.47,.21,.47,.82,0,2.27,.01,4.53,.02,6.8-.04,.28-.2,.48-.48,.47-.29,0-.44-.2-.46-.49Z"/>
    <path class="cls-11" d="M52.01,10.6c-.04,.3-.2,.48-.52,.45-.37-.04-.57,.04-.51,.48,.04,.31-.11,.57-.46,.57-.35,0-.51-.25-.47-.56,.05-.43-.13-.53-.51-.48-.32,.04-.52-.14-.52-.45,0-.32,.22-.48,.53-.45,.4,.05,.55-.08,.5-.5-.03-.31,.12-.55,.48-.55,.33,0,.48,.25,.45,.54-.06,.46,.14,.55,.54,.51,.29-.03,.46,.14,.5,.45Z"/>
    <path class="cls-11" d="M18.59,9.09c.37,.03,.52,.27,.48,.6-.04,.37,.09,.5,.46,.45,.32-.04,.57,.1,.57,.45,0,.34-.24,.5-.57,.45-.42-.07-.49,.12-.46,.48,.03,.32-.12,.57-.47,.56-.35,0-.49-.26-.46-.57,.04-.38-.07-.54-.47-.48-.33,.05-.56-.11-.56-.46,0-.32,.23-.48,.53-.44,.42,.06,.53-.11,.49-.51-.03-.3,.13-.5,.45-.55Z"/>
    <path class="cls-9" d="M34.54,9.1c.33,.02,.5,.2,.46,.52-.04,.4,.05,.6,.51,.54,.3-.04,.54,.1,.54,.43,0,.36-.23,.5-.56,.46-.42-.06-.54,.11-.49,.5,.04,.31-.11,.54-.43,.54-.35,0-.5-.23-.46-.56,.05-.42-.11-.54-.5-.49-.3,.04-.53-.1-.54-.43-.01-.36,.23-.5,.55-.47,.41,.05,.55-.1,.5-.5-.04-.3,.1-.51,.43-.55Z"/>
    <path class="cls-2" d="M50.5,23.44c-2.13,0-3.84-1.72-3.83-3.85,0-2.14,1.75-3.88,3.88-3.86,2.13,.02,3.82,1.77,3.81,3.93-.01,2.08-1.76,3.78-3.86,3.78Z"/>
    <path class="cls-14" d="M41.81,52.96c0,.16,0,.32,0,.47-.48,0-.97,.02-1.45,.02-4.17,0-8.34,0-12.51,0-.18,0-.35-.01-.53-.02,0-.16,0-.32,0-.48,.34-.06,.44-.29,.44-.61,0-3.8,0-7.6,0-11.4,0-.32-.1-.57-.46-.57-.37,0-.44,.27-.44,.58,0,.69,0,1.38,0,2.08,0,.26-.05,.37-.34,.36-.82-.02-1.65,0-2.47,0-.16,0-.34,.04-.33-.22,.04-1.04-.11-2.09,.16-3.12,.46-1.8,2.07-3.07,3.93-3.11,.18,0,.35,0,.53,0,1.08-.06,2.07,.13,3.09,.58,2.43,1.08,4.87,.86,7.21-.42,.2-.11,.39-.17,.62-.17,.85,.02,1.72-.06,2.56,.06,2.13,.3,3.51,1.96,3.59,4.2,.02,.63,0,1.27,.01,1.9,0,.27-.1,.32-.34,.31-.82-.01-1.65-.02-2.47,0-.29,0-.34-.11-.33-.36,.01-.69,0-1.38,0-2.08,0-.31-.07-.58-.45-.58-.36,0-.46,.25-.46,.57,0,3.8,0,7.6,0,11.4,0,.32,.1,.54,.44,.61Z"/>
    <path class="cls-4" d="M41.91,29.88c-.02,4.1-3.32,7.4-7.37,7.39-4.08-.02-7.35-3.35-7.33-7.47,.02-4.04,3.33-7.3,7.41-7.27,4.04,.02,7.31,3.32,7.28,7.36Zm-7.35,3c-.67,.04-1.25,.27-1.71,.77-.2,.22-.29,.47-.05,.7,.23,.23,.47,.16,.69-.06,.71-.67,1.43-.67,2.12-.01,.22,.21,.46,.29,.69,.07,.24-.22,.17-.47-.03-.7-.46-.51-1.04-.74-1.71-.78Zm3.42-2.88c.56,0,1.07-.22,1.48-.66,.2-.22,.29-.47,.05-.69-.23-.22-.47-.15-.7,.06-.59,.54-1.11,.54-1.7,0-.23-.21-.46-.29-.7-.06-.24,.23-.16,.48,.04,.7,.4,.43,.89,.65,1.52,.66Zm-6.82,0c.57-.01,1.09-.22,1.49-.67,.2-.22,.26-.48,.02-.7-.22-.2-.45-.14-.66,.05-.63,.56-1.11,.56-1.73,0-.23-.21-.47-.26-.7-.04-.21,.21-.15,.45,.04,.66,.4,.45,.91,.67,1.54,.68Z"/>
    <path class="cls-2" d="M18.62,23.44c-2.12,0-3.86-1.71-3.86-3.82,0-2.15,1.73-3.89,3.85-3.88,2.11,0,3.83,1.74,3.83,3.86,0,2.12-1.71,3.84-3.83,3.85Z"/>
    <path class="cls-3" d="M34.56,32.88c.68,.04,1.26,.27,1.71,.78,.2,.23,.27,.47,.03,.7-.24,.22-.47,.14-.69-.07-.69-.66-1.41-.66-2.12,.01-.23,.21-.46,.28-.69,.06-.23-.23-.15-.47,.05-.7,.46-.51,1.04-.74,1.71-.77Z"/>
    <path class="cls-6" d="M37.99,30c-.62-.01-1.12-.23-1.52-.66-.2-.22-.28-.47-.04-.7,.23-.22,.47-.14,.7,.06,.59,.54,1.11,.54,1.7,0,.23-.21,.46-.28,.7-.06,.24,.23,.16,.47-.05,.69-.41,.45-.92,.66-1.48,.66Z"/>
    <path class="cls-6" d="M31.17,30c-.63-.01-1.13-.24-1.54-.68-.19-.21-.26-.45-.04-.66,.23-.23,.46-.17,.7,.04,.62,.56,1.1,.55,1.73,0,.21-.19,.44-.25,.66-.05,.24,.22,.18,.47-.02,.7-.4,.45-.92,.66-1.49,.67Z"/>
  </g>
</svg>