<?xml version="1.0" encoding="utf-8"?>
<!-- Generator: Adobe Illustrator 27.0.0, SVG Export Plug-In . SVG Version: 6.00 Build 0)  -->
<svg version="1.1" id="Capa_1" xmlns="http://www.w3.org/2000/svg" xmlns:xlink="http://www.w3.org/1999/xlink" x="0px" y="0px"
	 viewBox="0 0 327.94 341.18" style="enable-background:new 0 0 327.94 341.18;" xml:space="preserve">
<style type="text/css">
	.st0{fill:#B2B2B8;}
	.st1{fill:#146893;}
	.st2{fill:none;stroke:#FFFFFF;stroke-miterlimit:10;}
</style>
<circle class="st0" cx="168.4" cy="200.49" r="136.68"/>
<g>
	<path class="st1" d="M162.85,7.57c9.48-2.6,38.17-9.14,69.95,4.13c21.52,8.98,34.83,23.02,41.28,30.91
		c12.81,12.78,19.12,25.59,17.32,31.81c-0.8,2.75-4.76,9.67-6.85,9.67c-2.42,0,29,39.87,29,39.87s8.39,8.86,6.01,12.08
		c-2.38,3.22-3.19,5.64-10.84,7.25c-7.65,1.61-8.46-2.01-13.29,3.22c0,0,10.87,5.24,9.26,10.07c-1.61,4.83-4.43,6.04-3.62,8.86
		c0.81,2.82,6.04,5.24,7.25,7.65c1.21,2.42,1.61,6.04-2.82,11.28c0,0,6.85,17.72,6.85,25.37c0,7.65-4.03,16.11-9.67,18.12
		c-5.64,2.01-33.02-1.61-49.94-5.64c0,0-1.7,0.4-11.32,10.47c0,0-12.84,24.16-16.07,25.77c-3.22,1.61-6.04,4.83-14.1,4.83
		c-8.05,0-13.29,0.81-14.5,0c0,0,25.37-24.16,37.05-23.76c0,0-7.65-10.07-14.1-13.69c0,0-19.73-18.93-22.55-26.18
		c-2.82-7.25-0.4-22.15,2.82-35.04c3.22-12.89,6.85-38.26-1.21-59.6c-8.05-21.34-34.23-22.15-38.26-26.58
		c-4.03-4.43,6.44-33.43,10.87-33.02l5.24-0.4C176.62,45.02,178.08,15.22,162.85,7.57z"/>
	<path d="M173.6,42.5c0,0-12.08,15.71-12.99,27.49c-0.91,11.78,15.71,45.22,15.71,45.22s-20.24,2.81-29.3,12.17
		c-9.06,9.36-16.01,17.52-16.61,30.2c-0.6,12.69-0.91,42.29,7.25,58.29c8.16,16.01-6.04,25.37-6.04,25.37l-33.83,30.2l71.89,22.05
		l25.98-29.85c0,0,11.96,43.14,28.03,57.63l-116.22-10.57c0,0-14.2-51.95-27.49-54.07c0,0-41.68,6.95-49.53,5.44
		c-7.85-1.51-7.85-0.6-13.59-8.46c-5.74-7.85,0-21.75,0-21.75s4.83-9.97,4.83-12.38c0-2.42-6.64-7.25-4.53-11.48
		c2.11-4.23,8.46-6.04,8.46-8.46c0-2.42-5.44-8.16-5.13-11.18c0.3-3.02,9.67-5.44,10.27-7.85c0.6-2.42-19.92-0.3-24.61-8.76
		c0,0,0.45-8.15,6.49-13.29c6.04-5.13,26.58-32.62,26.88-34.13c0.3-1.51,4.53-3.5,0.6-9.15c-3.93-5.65-4.23-3.84-4.23-3.84
		c1.8-5.51,4.35-11.84,8-18.54c6.34-11.61,13.75-20.17,19.78-26.06c4.04-3.41,8.67-6.91,13.92-10.29
		c13.61-8.77,26.77-13.75,37.33-16.69C114.9,39.79,145.82,32.54,173.6,42.5z"/>
	<path class="st2" d="M176.32,43.71c0,0,16.91-11.48,38.06-5.74s31.71,12.38,42.89,30.2c11.18,17.82,10.57,36.85,9.36,37.45
		c-1.21,0.6-5.13,2.42-5.44,4.53c-0.3,2.11,10.27,29.6,9.67,32.92c-0.6,3.32,2.72,6.04-5.44,6.04c0,0-8.46-3.62-9.97-2.42
		c-1.51,1.21,3.62,6.34,3.02,7.25c-0.6,0.91-6.04,2.11-4.83,5.74c1.21,3.62,3.02,4.83,3.02,6.64s-5.13,3.32-5.44,6.04
		c-0.3,2.72,1.21,13.29-0.91,16.01s-2.63,6.64-10.53,5.44s-21.79-13.89-23.61-13.89s-5.44-1.81-10.87,2.72
		c-5.44,4.53-8,11.02-9.29,11.4"/>
	<path class="st2" d="M161.22,79.05c0,0-20.04-14.7-58.29-1.51c-1.74,0.6-23.56,6.04-34.13,35.64s-3.02,29-3.02,29
		s6.64-1.21,0.91,14.2s-8.76,21.14-7.25,25.07c1.51,3.93,13.29-1.81,15.71,0c2.42,1.81-4.23,5.74-3.32,7.55s4.23,1.66,4.53,5.06
		c0.3,3.4-4.23,4.31-2.72,6.72c1.51,2.42,5.74,3.02,5.74,7.85c0,4.83-3.02,13.59,3.62,18.42c6.64,4.83,18.12-1.51,22.05-4.53
		c3.93-3.02,10.57-10.27,17.22-7.55c6.64,2.72,15.4,12.88,16.31,13.84"/>
</g>
</svg>
