<?xml version="1.0" encoding="utf-8"?>
<!-- Generator: Adobe Illustrator 27.0.0, SVG Export Plug-In . SVG Version: 6.00 Build 0)  -->
<svg version="1.1" id="Capa_1" xmlns="http://www.w3.org/2000/svg" xmlns:xlink="http://www.w3.org/1999/xlink" x="0px" y="0px"
	 viewBox="0 0 323.53 114.43" style="enable-background:new 0 0 323.53 114.43;" xml:space="preserve">
<style type="text/css">
	.st0{fill:#08090B;}
	.st1{fill:#156890;}
	.st2{fill:#176991;}
	.st3{fill:#186991;}
	.st4{stroke:#000000;stroke-width:0.5;stroke-miterlimit:10;}
</style>
<g>
	<path class="st0" d="M46.13,26.92c3.34-3.12,6.81-6.05,11-8.01c3.85-1.79,7.85-3.09,12.08-3.57c2.08-0.24,3.16,0.56,3.38,2.29
		c0.25,1.96-0.56,2.98-2.69,3.37c-6.07,1.1-11.6,3.44-16.47,7.25c-1.33,1.04-2.61,2.14-3.72,3.41c-1.47,1.52-2.89,3.09-3.96,4.94
		c-0.32,0.42-0.66,0.83-0.96,1.27c-2.38,3.6-4.21,7.48-5.78,11.49c-2.31,5.9-3.79,12.01-4.56,18.3c-0.2,1.63,0.36,2.11,1.95,1.97
		c3.07-0.27,5.13,1.15,5.95,4.13c0.41,1.49,0.63,3.03,1.2,4.48c0.61,2.79,1.19,5.59,1.85,8.37c0.18,0.78,0.71,1.39,1.59,1.53
		c1.34,0.36,2.69-0.01,4.04,0.04c2.06,0.08,4.12,0.06,6.18,0.09c2.83,0.04,4.05,1.43,3.39,4.19c-1.07,4.5-2.26,8.97-3.49,13.42
		c-0.59,2.13-2.52,2.82-4.38,1.75c-1.11-0.64-1.51-1.85-1.12-3.48c0.59-2.47,1.12-4.95,1.91-7.37c0.69-2.14-0.18-3.02-2.37-2.75
		c-2.63,0.33-5.25,0.17-7.8-0.63c-2.14-1.06-2.85-3.08-3.49-5.15c-0.73-3.19-1.45-6.39-2.18-9.58c-0.55-2.43-1.77-3.47-4.07-3.48
		c-4.1-0.02-5.5-1.54-5.09-5.57c0.68-6.75,1.97-13.38,4.05-19.84c2.18-6.77,5.42-13,9.8-18.62C43.61,29.75,44.87,28.33,46.13,26.92z
		"/>
	<path class="st1" d="M47,88.13c-0.88-0.14-1.41-0.75-1.59-1.53c-0.66-2.78-1.24-5.58-1.85-8.37c0.42-1.88,0.74-3.8,1.27-5.65
		c0.67-2.33,2.17-3.23,4.57-2.98c3.41,0.36,3.8-0.12,2.78-3.46c-1.35-4.41-2.33-8.9-2.9-13.48c-0.69-5.46-1.15-10.97-3.52-16.06
		c1.06-1.85,2.49-3.41,3.96-4.94c1.8,3.52,3.42,7.1,4.05,11.04c0.6,3.77,1.1,7.56,1.68,11.33c0.73,4.71,1.84,9.34,3.1,13.93
		c0.23,0.84,0.41,1.67,0.38,2.55c-0.1,2.53-1.82,4.35-4.42,4.63c-0.65,0.07-1.32,0.02-1.97,0.08c-2.01,0.2-2.87,0.96-3.19,2.96
		C48.79,81.55,47.84,84.83,47,88.13z"/>
	<path class="st2" d="M46.13,26.92c-1.26,1.42-2.52,2.83-3.77,4.25c-6.59-7.52-14.93-10.88-24.88-10.43
		c-0.73,0.03-1.62,0.6-2.11,0.1c-0.47-0.48,0.03-1.4,0.01-2.13c-0.01-0.53,0.02-1.07,0.06-1.6c0.17-2.1-0.27-1.78,1.8-1.92
		c11.34-0.81,20.92,2.9,28.61,11.34C45.96,26.63,46.04,26.78,46.13,26.92z"/>
	<path class="st3" d="M39.84,88.25c0.65,2.07,1.36,4.09,3.49,5.15c-2.18,0.83-4.48,0.45-6.72,0.69c-0.45,0.05-0.91,0.05-1.35,0.11
		c-1.44,0.2-1.95,0.78-1.82,2.24c0.19,1.97,0.85,3.84,1.34,5.75c0.22,0.83,0.51,1.66,0.62,2.51c0.24,1.82-0.57,2.84-2.44,3.21
		c-1.6,0.32-2.53-0.31-3.04-2.08c-1.32-4.53-2.54-9.09-3.59-13.7c-0.58-2.55,0.36-3.74,3.02-3.76c3-0.03,6.01,0,9.01-0.01
		C38.86,88.35,39.35,88.28,39.84,88.25z"/>
	<g>
		<path class="st4" d="M211.86,51.54c2.32-2.35,5.28-3.23,7.04-1.48c1.68,1.68,2.39,0.99,3.89-0.03c3.2-2.17,7.14-0.07,7.36,3.8
			c0.18,3.33,0.09,6.68,0.18,10.01c0.02,0.87-0.37,0.93-1.08,0.95c-2.47,0.06-2.45,0.09-2.48-2.33c-0.04-2.95,0.15-5.91-0.14-8.86
			c-0.22-2.2-0.96-3.16-2.42-3.04c-1.54,0.12-3.18,2.26-3.13,3.82c0.11,3.17,0.07,6.35,0.14,9.52c0.02,0.77-0.32,0.94-0.98,0.89
			c-0.44-0.03-0.88-0.06-1.31,0c-0.98,0.14-1.32-0.17-1.28-1.23c0.08-2.74,0.06-5.48,0.01-8.21c-0.02-1.03-0.12-2.09-0.36-3.08
			c-0.42-1.71-2.02-2.28-3.43-1.22c-1.2,0.91-2.07,2.02-2.02,3.71c0.09,2.96-0.01,5.92,0.05,8.87c0.02,0.95-0.28,1.18-1.2,1.17
			c-2.36-0.01-2.36,0.04-2.36-2.29c0-3.67-0.03-7.34,0.03-11.01c0.01-0.54-0.54-1.5,0.5-1.61c0.94-0.1,2.16-0.5,2.57,0.98
			C211.51,51.09,211.68,51.26,211.86,51.54z"/>
		<path class="st4" d="M97.64,50.91c4.14-3.6,9.55-0.28,10.71,4.04c1.02,3.81-0.57,7.86-3.83,9.58c-2.95,1.56-4.82,1.18-6.86-1.39
			c-0.45,0.19-0.58,0.64-0.75,1.02c-0.54,1.15-1.55,0.59-2.32,0.59c-0.87-0.01-0.46-0.85-0.46-1.3c-0.03-6.74,0.05-13.47-0.06-20.21
			c-0.03-1.71,0.89-1.42,1.92-1.48c1.15-0.07,1.78,0.08,1.7,1.52C97.54,45.73,97.64,48.19,97.64,50.91z M97.65,56.17
			c-0.05,2.22,0,4.24,0.97,6.1c1.24,2.39,3.51,2.54,5.04,0.37c1.98-2.81,1.96-8.02-0.04-10.7c-1.4-1.87-3.48-1.89-4.97-0.09
			C97.51,53.2,97.59,54.77,97.65,56.17z"/>
		<path class="st4" d="M92.57,64.73c-3.34,0.18-3.33,0.18-4.56-2.76c-0.96-2.32-1.99-4.61-2.86-6.96c-0.34-0.92-0.81-1.12-1.68-1.09
			c-1.64,0.06-3.29,0.07-4.93,0c-0.95-0.04-1.43,0.24-1.79,1.16c-1.14,2.94-2.42,5.84-3.6,8.77c-0.31,0.77-0.67,1.24-1.6,0.79
			c3.03-7.28,6.07-14.57,9.06-21.87c0.33-0.81,0.77-1.02,1.58-1.02c0.78,0,1.16,0.26,1.45,0.97c2.95,7.15,5.92,14.29,8.88,21.44
			C92.57,64.29,92.55,64.47,92.57,64.73z M80.97,44.91c-1.15,2.78-2.15,5.21-3.18,7.71c2.17,0,4.17,0,6.37,0
			C83.09,50.06,82.08,47.62,80.97,44.91z"/>
		<path class="st4" d="M249.72,57.22c0-1.97-0.02-3.94,0.02-5.91c0.01-0.48-0.37-1.3,0.39-1.37c0.84-0.08,1.98-0.58,2.54,0.36
			c0.53,0.91,0.83,0.6,1.42,0.19c2.08-1.44,4.32-1.64,6.57-0.53c2.25,1.12,2.67,3.28,2.7,5.55c0.04,2.68-0.01,5.37,0.02,8.05
			c0.01,0.84-0.09,1.26-1.1,1.27c-2.4,0.01-2.4,0.07-2.4-2.36c0-2.74,0.08-5.48-0.03-8.21c-0.05-1.32-0.01-2.96-1.54-3.51
			c-1.63-0.58-3.16-0.07-4.45,1.18c-0.58,0.56-0.67,1.18-0.67,1.92c0.02,3.23-0.08,6.47,0.05,9.69c0.07,1.77-1.05,1.2-1.89,1.26
			c-0.92,0.06-1.78,0.21-1.67-1.32C249.84,61.39,249.72,59.3,249.72,57.22z"/>
		<path class="st4" d="M161.51,59.08c0,1.48,0.03,2.96-0.02,4.44c-0.01,0.43,0.32,1.19-0.38,1.22c-0.79,0.04-1.92,0.57-2.37-0.4
			c-0.63-1.37-1.03-0.63-1.67-0.09c-2.08,1.75-4.39,1.45-6.63,0.45c-1.95-0.87-3.33-2.29-3.23-4.67c0.09-2.17,2.03-4.13,4.73-4.78
			c1.62-0.39,3.27-0.36,4.9-0.29c1,0.04,1.18-0.31,1.07-1.24c-0.35-3.11-1.95-4.04-4.72-2.59c-0.91,0.48-1.71,1.16-2.54,1.79
			c-0.35,0.26-0.61,0.19-0.83-0.1c-0.22-0.28-0.01-0.46,0.21-0.66c2.23-2.07,4.72-3.4,7.87-2.69c2.05,0.46,3.15,1.74,3.47,3.86
			c0.04,0.27,0.11,0.54,0.11,0.81C161.51,55.79,161.51,57.43,161.51,59.08C161.51,59.08,161.51,59.08,161.51,59.08z M155.85,56.24
			c-0.6,0-1.21-0.06-1.81,0.01c-1.92,0.23-3.15,1.58-3.26,3.5c-0.12,2.13,0.87,3.82,2.53,4.3c1.51,0.44,3.33-0.5,4.21-2.13
			c0.6-1.11,0.59-2.3,0.59-3.51C158.08,56.22,158.09,56.22,155.85,56.24z"/>
		<path class="st4" d="M205.3,58.98c0,1.48,0.04,2.96-0.02,4.44c-0.02,0.46,0.4,1.3-0.44,1.32c-0.78,0.02-1.86,0.6-2.35-0.46
			c-0.55-1.19-0.91-0.69-1.56-0.11c-2.1,1.86-4.46,1.53-6.75,0.49c-1.96-0.89-3.29-2.33-3.17-4.71c0.11-2.09,2.03-4.05,4.64-4.69
			c1.67-0.41,3.37-0.38,5.07-0.31c0.94,0.04,1.09-0.3,1.02-1.15c-0.29-3.2-1.94-4.13-4.8-2.66c-0.88,0.45-1.69,1.01-2.4,1.7
			c-0.26,0.25-0.56,0.36-0.84,0.04c-0.32-0.35-0.07-0.55,0.2-0.78c1.77-1.52,3.6-2.83,6.1-2.8c3.45,0.04,5.18,1.63,5.31,5.07
			C205.35,55.91,205.3,57.45,205.3,58.98z M201.88,58.83c0-0.74-0.02-1.29,0.01-1.83c0.03-0.52-0.09-0.82-0.71-0.79
			c-1.15,0.05-2.31-0.07-3.45,0.07c-1.84,0.21-3.03,1.58-3.16,3.42c-0.15,2.2,0.9,3.96,2.62,4.39c1.47,0.37,3.23-0.55,4.08-2.1
			C201.85,60.93,201.96,59.81,201.88,58.83z"/>
		<path class="st4" d="M241.66,56.81c-1.59,0-3.18,0.01-4.77,0c-0.52,0-1,0-0.96,0.74c0.12,2.19,0.59,4.24,2.43,5.68
			c1.88,1.48,4.36,1.19,6.56-0.71c0.32-0.28,0.61-1,1.14-0.35c0.34,0.43-0.21,0.72-0.47,1c-2.11,2.28-5.28,2.9-8.45,1.68
			c-2.96-1.14-4.75-3.99-4.75-7.54c-0.01-3.95,2.91-7.54,6.46-7.95c3.96-0.46,7.37,2.02,8.35,6.04c0.25,1.01,0.19,1.54-1.08,1.46
			C244.63,56.74,243.14,56.81,241.66,56.81z M243.81,55.59c-0.25-0.8-0.4-1.49-0.68-2.13c-0.62-1.43-1.32-2.85-3.17-2.89
			c-1.95-0.04-2.67,1.43-3.33,2.91c-0.18,0.39-0.29,0.82-0.42,1.23c-0.2,0.61-0.05,0.9,0.67,0.89
			C239.12,55.57,241.36,55.59,243.81,55.59z"/>
		<path class="st4" d="M285.69,56.81c-1.54,0-3.07-0.01-4.61,0.01c-0.4,0-0.85-0.16-1.04,0.48c-0.99,3.36,2.84,7.55,6.23,6.76
			c1.14-0.27,2.11-0.87,2.93-1.72c0.26-0.27,0.49-0.65,0.92-0.24c0.49,0.46-0.07,0.67-0.26,0.88c-2.19,2.38-4.89,2.98-7.93,2.1
			c-2.96-0.86-4.72-2.95-5.26-5.92c-0.83-4.54,1.4-8.42,5.42-9.58c4.57-1.33,8.61,2.02,9.31,6.37c0.13,0.82-0.32,0.88-0.95,0.87
			C288.87,56.8,287.28,56.81,285.69,56.81z M287.77,55.59c-0.02-1.03-0.3-1.87-0.71-2.63c-0.65-1.2-1.36-2.42-3.02-2.41
			c-1.72,0.01-2.46,1.22-3.12,2.51c-0.25,0.48-0.37,1.02-0.56,1.53c-0.22,0.63-0.19,1.02,0.67,1
			C283.27,55.57,285.5,55.59,287.77,55.59z"/>
		<path class="st4" d="M126.39,45.26c1.39-0.37,1.75,0.41,1.55,1.78c-0.06,0.43,0.04,0.88-0.02,1.31c-0.1,0.82,0.25,1.06,1.03,0.99
			c0.65-0.06,1.32-0.01,1.97-0.01c0.39,0,0.78-0.01,0.75,0.57c-0.02,0.5-0.29,0.66-0.74,0.66c-0.22,0-0.44,0-0.66,0
			c-2.35,0.04-2.36,0.04-2.35,2.31c0.02,2.74-0.08,5.49,0.13,8.21c0.23,2.97,1.75,3.73,4.5,2.59c0.4-0.17,0.92-1,1.34-0.13
			c0.38,0.79-0.52,0.82-0.91,1.03c-4.53,2.37-8.47,0.07-8.59-4.99c-0.01-0.33,0-0.66,0-0.99c0-2.25-0.05-4.5,0.02-6.74
			c0.03-0.98-0.2-1.44-1.25-1.31c-0.46,0.06-1.04,0.17-1.07-0.62c-0.03-0.87,0.64-0.64,1.04-0.58c1.19,0.17,1.38-0.45,1.27-1.41
			c-0.03-0.27-0.01-0.55-0.01-0.82C124.4,45.25,124.4,45.25,126.39,45.26z"/>
		<path class="st4" d="M180.36,55.75c0-1.1-0.03-2.19,0.01-3.29c0.04-1.16,0.12-2.27-1.62-1.91c-0.49,0.1-0.67-0.21-0.69-0.67
			c-0.02-0.45,0.22-0.62,0.6-0.55c2.14,0.41,1.77-1.11,1.68-2.27c-0.1-1.33,0.15-1.86,1.72-1.88c1.73-0.02,2.09,0.62,1.84,2.07
			c-0.3,1.68,0.33,2.4,2.06,2.08c0.27-0.05,0.55-0.01,0.82,0c0.42,0.02,0.92-0.09,0.87,0.62c-0.04,0.51-0.36,0.58-0.78,0.62
			c-0.97,0.08-2.36-0.47-2.8,0.28c-0.48,0.83-0.17,2.13-0.16,3.23c0.02,2.41-0.05,4.83,0.15,7.22c0.23,2.68,1.72,3.47,4.22,2.47
			c0.3-0.12,0.6-0.27,0.87-0.45c0.39-0.26,0.6-0.07,0.77,0.25c0.17,0.32-0.03,0.48-0.28,0.63c-1.97,1.22-4.06,1.66-6.27,0.82
			c-1.97-0.75-2.84-2.31-2.89-4.35c-0.03-1.64-0.01-3.28-0.01-4.93C180.43,55.75,180.4,55.75,180.36,55.75z"/>
		<path class="st4" d="M266.62,55.89c0-1.1-0.02-2.19,0.01-3.29c0.03-1.16,0.26-2.43-1.64-2.06c-0.51,0.1-0.65-0.25-0.67-0.69
			c-0.02-0.47,0.27-0.59,0.62-0.52c2.17,0.4,1.76-1.15,1.66-2.29c-0.13-1.38,0.22-1.87,1.74-1.85c1.53,0.01,1.93,0.44,1.85,1.92
			c-0.13,2.2-0.03,2.2,2.21,2.22c0.22,0,0.44-0.02,0.66,0.01c0.34,0.04,0.82-0.14,0.84,0.48c0.02,0.58-0.27,0.74-0.81,0.76
			c-0.92,0.04-2.15-0.42-2.69,0.2c-0.69,0.8-0.24,2.09-0.23,3.16c0.02,2.46-0.2,4.94,0.12,7.39c0.34,2.65,1.77,3.45,4.26,2.44
			c0.3-0.12,0.59-0.28,0.87-0.46c0.29-0.19,0.5-0.12,0.68,0.14c0.26,0.36,0.11,0.56-0.23,0.77c-1.98,1.21-4.06,1.64-6.27,0.8
			c-1.97-0.75-2.83-2.33-2.87-4.37c-0.04-1.59-0.01-3.17-0.01-4.76C266.69,55.89,266.66,55.89,266.62,55.89z"/>
		<path class="st4" d="M170.81,65.43c-3.36-0.02-6.59-2.69-7.1-6.41c-0.63-4.62,1.6-8.41,5.6-9.52c3.69-1.03,7.37,1.11,7.95,4.57
			c0.12,0.7,0.09,1.05-0.72,0.98c-0.44-0.03-0.88-0.05-1.32,0c-0.89,0.11-1.43-0.07-1.45-1.14c-0.01-0.57-0.26-1.17-0.51-1.71
			c-0.94-2.01-2.85-2.26-4.35-0.59c-2.22,2.46-2.42,7.99-0.39,10.62c1.88,2.44,4.94,2.58,7.5,0.38c0.31-0.26,0.55-1.1,1.12-0.5
			c0.56,0.59-0.24,0.9-0.54,1.21C175.2,64.73,173.49,65.48,170.81,65.43z"/>
		<path class="st4" d="M116.22,49.32c1.05-0.11,2.13,0.24,3.21,0.65c0.47,0.18,0.57,0.45,0.45,0.88c-0.18,0.65-0.56,0.3-0.88,0.17
			c-1.09-0.46-2.22-0.54-3.38-0.4c-0.79,0.09-1.35,0.49-1.56,1.25c-0.2,0.73,0.19,1.34,0.75,1.69c1.15,0.73,2.37,1.34,3.56,2
			c1.83,1.03,3.37,2.28,3.5,4.6c0.24,4.3-4.56,5.87-7.62,5.11c-1.2-0.3-2.23-0.94-3.01-1.89c-0.26-0.32-1.04-0.7-0.27-1.3
			c0.67-0.52,0.82,0.17,1.1,0.5c0.9,1.06,1.99,1.67,3.43,1.58c1.28-0.09,2.3-0.51,2.83-1.82c0.54-1.33,0.06-2.33-0.87-3.23
			c-0.92-0.89-2.09-1.37-3.22-1.93c-0.2-0.1-0.39-0.2-0.58-0.3c-2.47-1.26-3.51-2.75-3.09-4.44c0.46-1.86,2.34-3.06,4.86-3.11
			C115.65,49.31,115.87,49.32,116.22,49.32z"/>
		<path class="st4" d="M145.75,52.69c-1.37-2.34-3.11-2.76-5.11-1.27c-0.78,0.58-1.23,1.29-1.21,2.35c0.06,3.23-0.02,6.46,0.05,9.69
			c0.02,1.06-0.25,1.4-1.35,1.36c-2.21-0.07-2.21,0-2.21-2.28c0-3.67-0.03-7.34,0.03-11c0.01-0.55-0.52-1.52,0.48-1.62
			c0.92-0.09,2.14-0.56,2.68,0.83c0.06,0.15,0.18,0.27,0.33,0.48c2.03-1.71,4.33-2.35,6.93-1.68c0.62,0.16,1.41,0.33,1.54,1.03
			c0.1,0.56-0.66,0.78-1.03,1.16C146.54,52.09,146.13,52.37,145.75,52.69z"/>
	</g>
</g>
</svg>
