<?xml version="1.0" encoding="UTF-8"?>
<svg id="Capa_1" data-name="Capa 1" xmlns="http://www.w3.org/2000/svg" viewBox="0 0 66.84 71.54">
  <defs>
    <style>
      .cls-1 {
        fill: #b2b2b8;
      }

      .cls-2 {
        fill: #242428;
      }

      .cls-3 {
        fill: #fcde80;
      }

      .cls-4 {
        fill: #232428;
      }

      .cls-5 {
        fill: #222324;
      }

      .cls-6 {
        fill: #242527;
      }

      .cls-7 {
        fill: #8dcfd9;
      }

      .cls-8 {
        fill: #a9b0b9;
      }

      .cls-9 {
        fill: #8cced8;
      }

      .cls-10 {
        fill: #212326;
      }

      .cls-11 {
        fill: #2c2b2f;
      }

      .cls-12 {
        fill: #8bcdd6;
      }

      .cls-13 {
        fill: #8ecfd9;
      }

      .cls-14 {
        fill: #24262a;
      }

      .cls-15 {
        fill: #26262a;
      }
    </style>
  </defs>
  <rect class="cls-1" width="66.84" height="71.54" rx="12.28" ry="12.28"/>
  <g>
    <path class="cls-14" d="M35.07,9.63c.22,.16,.49,.11,.73,.21,1.81,.71,2.82,2.02,2.93,3.96,.06,1,.13,2.01-.09,2.99-.38,1.69-1.42,2.8-3.09,3.29-.26,.08-.35,.17-.34,.44,.02,.54,.02,1.09,0,1.63-.02,.94-.7,1.66-1.58,1.69-.87,.03-1.61-.68-1.63-1.62-.03-1.19-.03-2.39,0-3.58,.03-.98,.71-1.62,1.69-1.58,1.42,.06,1.93-.29,1.83-1.84-.03-.43,0-.85,0-1.28-.02-.64-.43-1.08-1.07-1.12-.34-.02-.68-.02-1.02,0-.62,.05-1.02,.47-1.05,1.09-.02,.32,0,.65-.03,.97-.1,.84-.76,1.44-1.56,1.45-.79,.01-1.49-.54-1.59-1.36-.3-2.37,.72-4.32,2.88-5.12,.2-.07,.43-.05,.59-.22h2.39Zm-2.13,10.81c0,.56,0,1.12,0,1.68,0,.51,.26,.79,.69,.78,.42,0,.65-.27,.66-.77,0-.68,0-1.35,0-2.03,0-.63,.08-.71,.71-.83,1.44-.28,2.37-1.14,2.72-2.55,.24-.97,.07-1.96,.1-2.95,.01-.39-.09-.76-.24-1.11-.88-2.15-4.12-2.92-6.11-1.45-1.09,.81-1.67,2.4-1.34,3.7,.09,.35,.34,.51,.69,.49,.35-.02,.58-.22,.63-.57,.03-.29,0-.59,.02-.88,.03-1.18,.88-2.01,2.05-2.04,.34,0,.68,0,1.02,0,.94,.03,1.72,.68,1.88,1.61,.15,.86,.12,1.74,.03,2.6-.11,1.12-.94,1.8-2.07,1.81-.21,0-.41,0-.62,0-.56,.02-.8,.26-.81,.82,0,.56,0,1.12,0,1.68Z"/>
    <path class="cls-6" d="M36.03,26.78c.18-.34,.45-.36,.78-.23,1.43,.54,2.66,1.36,3.68,2.5,.15,.17,.3,.28,.54,.32,.49,.07,.91,.34,1.11,.79,.68,1.56,1.5,3.06,1.87,4.73,.07,.33,.11,.67,.1,1.01,0,.31,.11,.35,.38,.36,2.24,.13,4.04,1.68,4.5,3.87,.08,.4,.1,.82,.1,1.23,0,3.27,0,6.54,0,9.81,0,.98-.24,1.86-.9,2.6-.03,.04-.06,.09-.15,.21,.63,0,1.18,0,1.73,0,.33,0,.66,.01,.66,.45,0,.43-.31,.46-.64,.46-2.59,0-5.18,0-7.78,0-.34,0-.57-.09-.66-.44,.07-.38,.31-.49,.67-.47,.39,.02,.78,0,1.25,0-.5-.55-.8-1.1-1-1.73-.69-2.16-1.41-4.32-2.12-6.48-.35-1.05-.7-2.11-1.04-3.15-3.67,2.36-7.29,2.36-10.96,0-.09,.25-.18,.51-.26,.77-.59,1.78-1.14,3.58-1.77,5.34-.63,1.76-.9,3.67-2.06,5.24,.41,0,.8,.02,1.18,0,.36-.02,.6,.09,.67,.47-.08,.32-.28,.44-.61,.44-2.62,0-5.24,0-7.86,0-.33,0-.6-.07-.6-.46,0-.41,.3-.45,.62-.45,.56,0,1.12,0,1.67,0,.08-.17-.06-.23-.12-.31-.56-.66-.81-1.43-.81-2.28,0-3.4-.02-6.8,0-10.21,.01-2.71,1.95-4.74,4.65-4.92,.23-.02,.33-.05,.33-.32,0-.97,.25-1.88,.65-2.76,.4-.89,.77-1.81,1.16-2.71,.27-.63,.71-1.04,1.41-1.12,.21-.02,.3-.17,.41-.3,1.02-1.14,2.26-1.96,3.68-2.5,.34-.13,.6-.1,.78,.23,.02,.35-.15,.53-.48,.64-.39,.14-.76,.31-1.12,.51-.66,.35-1.26,.78-1.87,1.41,.38,0,.65-.01,.93,0,1.26,.06,2.14,1.29,1.75,2.5-.18,.56-.42,1.1-.67,1.63-.45,.95-.64,1.94-.61,2.99,.06,1.64,.02,3.27-.61,4.82-.13,.33-.04,.49,.23,.68,2.8,1.99,6.59,2.04,9.45,.12q.54-.37,.33-1.01c-.07-.21-.13-.42-.19-.63-.42-1.38-.35-2.79-.33-4.2,0-.9-.15-1.75-.52-2.57-.22-.48-.42-.97-.62-1.46-.64-1.53,.23-2.87,1.88-2.88,.18,0,.37,0,.56,0-.01-.08,0-.12-.02-.13-.08-.08-.17-.16-.26-.24-.77-.67-1.64-1.19-2.6-1.54-.32-.12-.5-.29-.48-.64Zm-14.91,17.27c-.55,0-1.05,.02-1.55,0-.36-.02-.43,.11-.43,.44,.01,2.27,0,4.53,0,6.8,0,.25,0,.5,.06,.75,.29,1.13,1.21,1.89,2.38,1.95,1.12,.05,2.13-.68,2.51-1.85,1.04-3.16,2.02-6.35,3.13-9.49,.76-2.15,1.23-4.31,1.07-6.6-.03-.41,.04-.82,.11-1.23,.2-1.08,.75-2.03,1.15-3.04,.33-.83-.13-1.53-1.02-1.54-.57,0-1.15,.01-1.72,0-.51-.02-.82,.21-1.02,.67-.4,.98-.83,1.94-1.24,2.92-.29,.7-.46,1.42-.46,2.18-.02,4.23,.26,2.79-1.43,6.78-.58,1.36-1.18,2.72-1.77,4.08-.14,.32-.33,.56-.7,.38-.35-.17-.27-.47-.14-.76,.04-.09,.09-.19,.13-.28,.3-.7,.6-1.4,.92-2.15Zm27.04,4.03c0-1.22,0-2.44,0-3.67,0-.29-.08-.38-.37-.37-.43,.02-.85,.02-1.28,0-.3-.01-.3,.1-.2,.33,.33,.74,.65,1.48,.96,2.22,.15,.37,0,.66-.33,.7-.31,.03-.44-.18-.54-.42-.5-1.16-1.01-2.31-1.51-3.47-.5-1.16-1.02-2.31-1.48-3.48-.38-.99-.19-2.04-.22-3.06-.02-.72,.05-1.44-.16-2.15-.43-1.39-1.09-2.69-1.65-4.03-.14-.33-.44-.45-.8-.45-.56,0-1.12,0-1.68,0-1.1,0-1.53,.67-1.1,1.69,.33,.78,.71,1.55,.96,2.36,.32,1.06,.24,2.16,.24,3.24,0,.93,.03,1.86,.32,2.75,1.3,3.99,2.6,7.98,3.92,11.96,.41,1.23,1.56,1.89,2.8,1.69,1.25-.21,2.09-1.19,2.11-2.5,.01-1.12,0-2.24,0-3.36Zm-29.02-6.51c0,.53,0,.9,0,1.26,0,.21,.03,.32,.28,.31,.62-.02,1.24-.02,1.85,0,.22,0,.3-.1,.37-.28,.31-.74,.6-1.5,.97-2.21,.51-.99,.64-2.03,.6-3.12-.01-.3-.11-.36-.39-.35-.92,.05-1.71,.39-2.39,1-1.06,.95-1.4,2.17-1.29,3.39Zm29.03,.24c-.02-.58,.02-1.13-.11-1.67-.41-1.66-1.94-2.92-3.63-2.95-.17,0-.33-.03-.33,.22,0,.91-.06,1.82,.35,2.68,.33,.7,.69,1.4,.92,2.14,.23,.76,.64,1.05,1.42,.92,.43-.07,1.02,.14,1.28-.08,.29-.25,.05-.86,.1-1.26Z"/>
    <path class="cls-13" d="M25.94,54.45c-.07-.38-.31-.49-.67-.47-.38,.02-.76,0-1.18,0,1.16-1.58,1.44-3.48,2.06-5.24,.63-1.77,1.18-3.56,1.77-5.34,.09-.26,.18-.52,.26-.77,3.66,2.36,7.29,2.36,10.96,0,.35,1.04,.7,2.1,1.04,3.15,.71,2.16,1.42,4.31,2.12,6.48,.2,.62,.5,1.18,1,1.73-.47,0-.86,.02-1.25,0-.36-.02-.6,.09-.67,.47-2.84,0-5.68-.01-8.51-.01-2.31,0-4.62,0-6.92,.01Z"/>
    <path class="cls-3" d="M36.03,26.78c-.02,.35,.15,.52,.48,.64,.96,.34,1.83,.86,2.6,1.54,.09,.08,.17,.16,.26,.24,.02,.02,.01,.05,.02,.13-.19,0-.37,0-.56,0-1.65,.01-2.53,1.35-1.88,2.88,.2,.49,.4,.98,.62,1.46,.38,.82,.53,1.67,.52,2.57-.01,1.41-.09,2.83,.33,4.2,.06,.21,.13,.42,.19,.63q.21,.64-.33,1.01c-2.85,1.93-6.65,1.87-9.45-.12-.27-.19-.36-.36-.23-.68,.63-1.55,.66-3.18,.61-4.82-.04-1.05,.16-2.04,.61-2.99,.25-.53,.49-1.07,.67-1.63,.39-1.2-.48-2.44-1.75-2.5-.27-.01-.54,0-.93,0,.6-.63,1.21-1.06,1.87-1.41,.36-.19,.74-.37,1.12-.51,.32-.12,.5-.29,.48-.64,.16-.04,.32-.07,.48-.11,.03,.6,.23,1.12,.71,1.5,.58,.45,1.23,.55,1.91,.27,.77-.32,1.12-.95,1.16-1.77,.16,.04,.32,.07,.48,.11Zm-2.39,13.76c-.78,0-1.42,.3-1.95,.87-.22,.23-.31,.49-.05,.73,.24,.22,.47,.13,.69-.08,.85-.83,1.79-.83,2.63,0,.22,.21,.45,.31,.69,.1,.27-.23,.19-.49-.03-.73-.53-.59-1.19-.89-1.99-.88Z"/>
    <path class="cls-4" d="M25.23,23.08c-.04,3.48-1.05,6.35-3.06,8.85-.5,.62-1.11,.69-1.73,.2-.29-.23-.57-.46-.85-.7-.59-.51-.64-1.08-.15-1.7,1.02-1.27,1.73-2.68,2.05-4.28,.6-3.04-.02-5.8-1.91-8.27-.69-.9-.65-1.36,.22-2.07,.24-.2,.47-.4,.72-.59,.52-.39,1.12-.34,1.54,.16,1.64,1.96,2.64,4.21,3.01,6.74,.09,.64,.12,1.29,.15,1.67Zm-.93,.25c-.02-2.82-.86-5.37-2.57-7.62-.49-.64-.38-.7-1.05-.14-.11,.09-.22,.2-.34,.28-.33,.21-.32,.39-.08,.7,3.03,3.81,3.17,9.23,.36,13.15-.63,.88-.62,.86,.21,1.58,.33,.29,.51,.24,.76-.08,1.79-2.31,2.7-4.93,2.71-7.86Z"/>
    <path class="cls-4" d="M42.09,23.61c.05-3.45,1.04-6.33,3.07-8.83,.53-.65,1.11-.7,1.76-.18,.25,.2,.5,.41,.75,.62,.66,.55,.73,1.12,.19,1.79-.9,1.13-1.57,2.37-1.91,3.78-.79,3.23-.19,6.17,1.84,8.81,.62,.8,.58,1.29-.2,1.95-.25,.21-.49,.42-.75,.62-.55,.42-1.16,.37-1.6-.16-1.61-1.94-2.6-4.17-2.98-6.67-.1-.65-.12-1.32-.16-1.73Zm4.01-8.42c-.16,.02-.22,.15-.3,.25-3.55,4.36-3.72,10.69-.42,15.26q.67,.93,1.53,.21s.02-.02,.03-.03c.36-.21,.37-.41,.1-.76-3.01-3.8-3.14-9.16-.35-13.11,.2-.28,.61-.53,.55-.86-.07-.34-.51-.49-.78-.74-.1-.1-.2-.22-.36-.23Z"/>
    <path class="cls-2" d="M20.23,23.17c-.03,2.14-.59,3.94-1.74,5.54-.56,.78-1.16,.85-1.9,.24-.19-.16-.38-.32-.58-.48-.79-.65-.85-1.08-.3-1.92,1.06-1.62,1.27-3.35,.63-5.18-.17-.49-.43-.93-.72-1.36-.43-.63-.36-1.14,.2-1.63,.3-.26,.6-.52,.92-.76,.55-.42,1.18-.36,1.6,.18,.97,1.27,1.56,2.71,1.77,4.3,.05,.41,.12,.82,.1,1.05Zm-.94,.83c0-2.33-.47-3.85-1.38-5.24-.38-.58-.39-.57-.94-.13-.11,.09-.22,.2-.34,.28-.36,.22-.35,.42-.12,.78,1.41,2.22,1.49,4.51,.3,6.86-.16,.31-.55,.57-.46,.91,.09,.34,.53,.48,.79,.74,.29,.3,.47,.21,.68-.1,.98-1.44,1.48-3.02,1.48-4.1Z"/>
    <path class="cls-2" d="M47.09,23.38c.04-2.01,.6-3.82,1.77-5.42,.51-.7,1.13-.79,1.81-.24,.25,.2,.5,.41,.75,.62,.64,.55,.72,1.04,.25,1.73-.72,1.05-1.08,2.2-1.04,3.48,.03,1.1,.36,2.1,.98,3.02,.55,.82,.49,1.28-.26,1.89-.23,.19-.45,.38-.68,.56-.65,.53-1.27,.46-1.78-.23-1.19-1.61-1.75-3.44-1.78-5.4Zm2.74-5.09c-.18,.04-.25,.2-.33,.33-1.88,2.91-2,5.89-.34,8.92,.56,1.02,.59,1,1.47,.29,.01,0,.02-.02,.04-.03,.38-.22,.36-.44,.13-.81-1.41-2.23-1.48-4.52-.27-6.86,.15-.3,.53-.55,.46-.87-.07-.33-.49-.48-.75-.71-.12-.1-.22-.24-.4-.26Z"/>
    <path class="cls-10" d="M35.55,26.67c-.04,.82-.4,1.44-1.16,1.77-.67,.28-1.33,.19-1.91-.27-.48-.38-.68-.9-.71-1.5,.13-1.02,.74-1.72,1.6-1.83,.86-.11,1.66,.33,2.01,1.11,.11,.23,.13,.48,.17,.72Zm-1.9,1c.55,0,.98-.43,.98-.96,0-.53-.46-.98-.99-.97-.51,0-.95,.44-.96,.96-.01,.54,.42,.98,.96,.98Z"/>
    <path class="cls-11" d="M12.94,24.88c-.35-.04-.51-.27-.47-.6,.03-.33-.06-.48-.42-.43-.33,.04-.61-.1-.61-.47,0-.36,.27-.51,.61-.47,.35,.04,.46-.09,.42-.43-.04-.34,.11-.61,.47-.6,.36,0,.51,.28,.46,.61-.05,.37,.12,.44,.44,.41,.34-.03,.6,.12,.59,.49,0,.34-.27,.49-.58,.45-.37-.04-.49,.09-.45,.45,.04,.32-.12,.54-.46,.59Z"/>
    <path class="cls-11" d="M54.39,21.87c.37,.06,.5,.31,.46,.64-.04,.34,.08,.44,.41,.4,.33-.04,.61,.09,.62,.45,0,.39-.29,.53-.64,.48-.36-.04-.42,.11-.39,.42,.03,.33-.1,.61-.47,.61-.36,0-.51-.27-.47-.6,.04-.35-.09-.46-.43-.42-.34,.03-.6-.11-.6-.48,0-.34,.26-.5,.57-.46,.42,.06,.49-.13,.46-.49-.03-.32,.15-.52,.48-.56Z"/>
    <path class="cls-15" d="M15.58,54.88c-.34,.04-.59-.08-.63-.44-.03-.3,.23-.47,.66-.47,.34,0,.62,.1,.6,.48-.01,.36-.29,.48-.63,.44Z"/>
    <path class="cls-15" d="M51.74,54.88c-.36,.04-.63-.09-.63-.45,0-.37,.29-.46,.62-.46,.33,0,.63,.08,.63,.45,0,.39-.28,.51-.63,.46Z"/>
    <path class="cls-9" d="M32.94,20.45c0-.56,0-1.12,0-1.68,0-.55,.25-.8,.81-.82,.21,0,.41,0,.62,0,1.13-.01,1.96-.69,2.07-1.81,.08-.86,.11-1.74-.03-2.6-.16-.93-.94-1.59-1.88-1.61-.34-.01-.68-.01-1.02,0-1.17,.02-2.02,.86-2.05,2.04,0,.29,.02,.59-.02,.88-.04,.35-.28,.55-.63,.57-.35,.02-.6-.15-.69-.49-.33-1.3,.25-2.89,1.34-3.7,1.99-1.47,5.23-.7,6.11,1.45,.15,.36,.25,.72,.24,1.11-.03,.98,.14,1.98-.1,2.95-.35,1.42-1.28,2.28-2.72,2.55-.63,.12-.7,.2-.71,.83,0,.68,0,1.35,0,2.03,0,.49-.24,.76-.66,.77-.43,0-.69-.27-.69-.78,0-.56,0-1.12,0-1.68Z"/>
    <path class="cls-3" d="M21.12,44.05c-.32,.76-.62,1.45-.92,2.15-.04,.09-.09,.19-.13,.28-.13,.29-.21,.59,.14,.76,.37,.18,.57-.07,.7-.38,.59-1.36,1.19-2.72,1.77-4.08,1.69-3.99,1.41-2.55,1.43-6.78,0-.76,.17-1.49,.46-2.18,.41-.97,.84-1.94,1.24-2.92,.19-.47,.5-.69,1.02-.67,.57,.02,1.15,0,1.72,0,.89,.01,1.34,.71,1.02,1.54-.4,1.01-.94,1.96-1.15,3.04-.08,.41-.14,.82-.11,1.23,.16,2.29-.31,4.45-1.07,6.6-1.11,3.14-2.09,6.32-3.13,9.49-.38,1.17-1.4,1.9-2.51,1.85-1.17-.06-2.1-.82-2.38-1.95-.06-.25-.06-.5-.06-.75,0-2.27,0-4.53,0-6.8,0-.34,.07-.47,.43-.44,.5,.03,.99,0,1.55,0Z"/>
    <path class="cls-3" d="M48.17,48.08c0,1.12,.01,2.24,0,3.36-.02,1.31-.86,2.29-2.11,2.5-1.24,.21-2.4-.46-2.8-1.69-1.32-3.98-2.62-7.97-3.92-11.96-.29-.89-.32-1.82-.32-2.75,0-1.09,.08-2.18-.24-3.24-.25-.82-.63-1.58-.96-2.36-.43-1.02,0-1.69,1.1-1.69,.56,0,1.12,0,1.68,0,.35,0,.66,.12,.8,.45,.55,1.34,1.22,2.64,1.65,4.03,.21,.7,.14,1.43,.16,2.15,.03,1.02-.16,2.08,.22,3.06,.46,1.18,.98,2.33,1.48,3.48,.5,1.16,1.01,2.31,1.51,3.47,.1,.24,.23,.45,.54,.42,.33-.03,.48-.33,.33-.7-.31-.74-.64-1.48-.96-2.22-.1-.23-.1-.34,.2-.33,.43,.02,.85,.02,1.28,0,.29-.02,.37,.08,.37,.37-.01,1.22,0,2.44,0,3.67Z"/>
    <path class="cls-7" d="M19.15,41.57c-.11-1.22,.23-2.44,1.29-3.39,.68-.61,1.47-.95,2.39-1,.28-.02,.38,.04,.39,.35,.04,1.09-.09,2.13-.6,3.12-.37,.72-.66,1.47-.97,2.21-.08,.18-.15,.29-.37,.28-.62-.02-1.24-.02-1.85,0-.25,0-.29-.1-.28-.31,.01-.37,0-.74,0-1.26Z"/>
    <path class="cls-7" d="M48.17,41.8c-.05,.41,.2,1.01-.1,1.26-.26,.22-.85,.01-1.28,.08-.78,.12-1.19-.16-1.42-.92-.23-.74-.59-1.44-.92-2.14-.4-.86-.34-1.78-.35-2.68,0-.25,.16-.22,.33-.22,1.68,.03,3.22,1.29,3.63,2.95,.13,.54,.09,1.08,.11,1.67Z"/>
    <path class="cls-5" d="M33.64,40.54c.8,0,1.45,.29,1.99,.88,.22,.24,.3,.49,.03,.73-.24,.21-.47,.11-.69-.1-.84-.83-1.78-.82-2.63,0-.22,.21-.45,.3-.69,.08-.26-.24-.17-.49,.05-.73,.53-.57,1.17-.87,1.95-.87Z"/>
    <path class="cls-8" d="M24.3,23.33c-.01,2.93-.91,5.55-2.71,7.86-.25,.33-.43,.37-.76,.08-.83-.72-.84-.7-.21-1.58,2.81-3.92,2.67-9.34-.36-13.15-.24-.31-.25-.49,.08-.7,.12-.08,.23-.18,.34-.28,.67-.57,.56-.5,1.05,.14,1.72,2.25,2.56,4.8,2.57,7.62Z"/>
    <path class="cls-8" d="M46.09,15.2c.16,0,.26,.13,.36,.23,.27,.25,.72,.4,.78,.74,.06,.33-.35,.58-.55,.86-2.79,3.96-2.66,9.31,.35,13.11,.27,.34,.26,.55-.1,.76-.01,0-.02,.02-.03,.03q-.86,.72-1.53-.21c-3.3-4.57-3.12-10.9,.42-15.26,.08-.1,.14-.23,.3-.25Z"/>
    <path class="cls-8" d="M19.29,24c0,1.08-.5,2.66-1.48,4.1-.21,.31-.39,.4-.68,.1-.25-.26-.69-.4-.79-.74-.09-.34,.3-.6,.46-.91,1.2-2.35,1.12-4.64-.3-6.86-.23-.35-.23-.56,.12-.78,.12-.08,.23-.18,.34-.28,.55-.45,.55-.45,.94,.13,.92,1.38,1.38,2.91,1.38,5.24Z"/>
    <path class="cls-8" d="M49.83,18.29c.18,.02,.28,.16,.4,.26,.26,.23,.68,.38,.75,.71,.07,.32-.3,.57-.46,.87-1.2,2.34-1.13,4.64,.27,6.86,.23,.37,.25,.59-.13,.81-.01,0-.02,.02-.04,.03-.88,.72-.91,.73-1.47-.29-1.66-3.03-1.54-6.02,.34-8.92,.08-.13,.15-.29,.33-.33Z"/>
    <path class="cls-12" d="M33.65,27.67c-.54,0-.97-.44-.96-.98,.01-.52,.44-.95,.96-.96,.52,0,.98,.44,.99,.97,0,.54-.43,.97-.98,.96Z"/>
  </g>
</svg>